# xmcd
#
# Track frame offsets:
#	150
#	15238
#	28156
#	49698
#	68991
#	84683
#	98725
#	111484
#	128142
#	148334
#	165750
#
# Disc length: 2477 seconds
#
# Revision: 1
# Processed by: cddbd v1.5.2PL0 Copyright (c) Steve Scherf et al.
# Submitted via: audiograbber 1.83.01
#
DISCID=8f09ab0b
DTITLE=Eric Paslay - Eric Paslay
DYEAR=2014
DGENRE=Country
TTITLE0=Keep On Fallin
TTITLE1=Friday Night
TTITLE2=Less Than Whole
TTITLE3=Country Side Of Heaven
TTITLE4=Nefep&“eally Wanted
TTITLE5=Here Comes Love
TTITLE6=Like A Song
TTITLE7=Good With Wine
TTITLE8=She Dont Love You
TTITLE9=Song About A Girl
TTITLE10=De’p As It Is Wide
EXTD=
EXTT0=
EXTT1=
EXTT2=
EXTT3=
EXTT4=
EXTT5=
EXTT6=
EXTT7=
EXTT8=
EXTT9=
EXTT10=
PLAYORDER=
